<svg width="28" height="30" viewBox="0 0 28 30" fill="none" xmlns="http://www.w3.org/2000/svg">
<path fill-rule="evenodd" clip-rule="evenodd" d="M26.5263 5.89474V10.3158H11.7895C11.0078 10.3158 10.2581 10.6263 9.70537 11.1791C9.15263 11.7318 8.84211 12.4815 8.84211 13.2632V26.5263H2.94737C2.16568 26.5263 1.416 26.2158 0.863264 25.6631C0.310525 25.1103 0 24.3606 0 23.5789V5.89474C0 5.11305 0.310525 4.36337 0.863264 3.81063C1.416 3.25789 2.16568 2.94737 2.94737 2.94737H5.89474C5.89474 2.16568 6.20526 1.416 6.758 0.863264C7.31074 0.310525 8.06042 0 8.84211 0H17.6842C18.4659 0 19.2156 0.310525 19.7683 0.863264C20.3211 1.416 20.6316 2.16568 20.6316 2.94737H23.5789C24.3606 2.94737 25.1103 3.25789 25.6631 3.81063C26.2158 4.36337 26.5263 5.11305 26.5263 5.89474ZM8.84211 2.94737V5.89474L8.84212 5.89474V2.94737L17.6842 2.94737H8.84211ZM14.7369 13.2632H25.0526C25.8343 13.2632 26.584 13.5737 27.1368 14.1264C27.6895 14.6792 28 15.4288 28 16.2105V26.5263C28 27.308 27.6895 28.0577 27.1368 28.6104C26.584 29.1632 25.8343 29.4737 25.0526 29.4737H14.7369C13.9552 29.4737 13.2055 29.1632 12.6528 28.6104C12.1 28.0577 11.7895 27.308 11.7895 26.5263V16.2105C11.7895 15.4288 12.1 14.6792 12.6528 14.1264C13.2055 13.5737 13.9552 13.2632 14.7369 13.2632Z"/>
</svg>
