<svg width="28" height="28" viewBox="0 0 28 28" fill="none" xmlns="http://www.w3.org/2000/svg">
<path d="M0.540074 22.6347L0.0148212 26.307C-0.0176397 26.535 0.0033895 26.7673 0.0762447 26.9858C0.1491 27.2042 0.271782 27.4026 0.434585 27.5654C0.597387 27.7282 0.795843 27.8509 1.01425 27.9238C1.23266 27.9966 1.46502 28.0176 1.69296 27.9852L5.36528 27.4599C5.92169 27.3813 7.31643 23.6363 7.31643 23.6363C7.31643 23.6363 8.01676 24.2372 8.30313 24.3277C8.91444 24.5206 9.50943 23.9211 9.70974 23.3128L10.284 20.6836C10.284 20.6836 11.1401 21.1168 11.4502 21.1806C11.8449 21.2622 12.2277 21.0189 12.4992 20.7459C12.6623 20.5833 12.7848 20.3845 12.8568 20.1657L13.2515 17.716C13.2515 17.716 14.253 17.9935 14.5958 18.0336C14.986 18.0781 15.3658 17.8793 15.6448 17.5988L17.3333 15.9118C18.7626 16.3749 20.292 16.4347 21.7531 16.0844C23.2142 15.7341 24.5503 14.9874 25.6142 13.9265C27.142 12.3947 28 10.3196 28 8.15615C28 5.9927 27.142 3.91756 25.6142 2.38579C24.0824 0.857983 22.0073 0 19.8439 0C17.6804 0 15.6053 0.857983 14.0735 2.38579C13.0123 3.44954 12.2654 4.78561 11.9151 6.24676C11.5648 7.70791 11.6247 9.2374 12.0882 10.6667L0.958495 21.7949C0.731321 22.0218 0.58441 22.3167 0.540074 22.6347ZM22.9019 5.09811C23.7114 5.90998 24.1659 7.00968 24.1659 8.15615C24.1659 9.30262 23.7114 10.4023 22.9019 11.2142L16.7858 5.09811C17.5977 4.28863 18.6974 3.83407 19.8439 3.83407C20.9903 3.83407 22.09 4.28863 22.9019 5.09811Z" fill="#E7E7E7"/>
</svg>
